<?xml version="1.0" standalone="no"?>
<!DOCTYPE svg PUBLIC "-//W3C//DTD SVG 20010904//EN"
 "http://www.w3.org/TR/2001/REC-SVG-20010904/DTD/svg10.dtd">
<svg version="1.0" xmlns="http://www.w3.org/2000/svg"
 width="400.000000pt" height="400.000000pt" viewBox="0 0 400.000000 400.000000"
 preserveAspectRatio="xMidYMid meet">
<metadata>
Created by potrace 1.16, written by Peter Selinger 2001-2019
</metadata>
<g transform="translate(0.000000,400.000000) scale(0.100000,-0.100000)"
fill="#000000" stroke="none">
<path d="M614 3961 c5 -7 -2 -11 -16 -11 -22 0 -23 -4 -24 -73 0 -40 4 -75 10
-79 8 -6 7 -10 -1 -16 -13 -8 -13 19 -11 -632 0 -245 0 -456 0 -470 -1 -14 -3
-588 -4 -1276 -2 -1019 -5 -1254 -16 -1267 -23 -27 -11 -69 26 -90 31 -18 35
-18 75 -3 24 9 50 16 58 16 9 0 24 9 34 20 13 15 31 20 65 20 34 0 52 -5 65
-20 23 -25 31 -25 52 0 24 28 103 28 128 0 23 -26 52 -25 74 1 l17 21 1113 -1
c962 -2 1115 -4 1128 -16 8 -8 28 -15 45 -15 24 0 29 3 24 16 -9 24 13 47 31
33 19 -17 30 -2 15 22 -7 10 -10 30 -6 44 5 21 3 25 -15 25 -16 0 -21 6 -21
28 0 15 5 33 12 40 7 7 8 12 2 12 -6 0 -11 14 -11 30 0 22 5 30 18 30 10 0 20
4 24 9 9 15 -14 24 -29 12 -10 -9 -15 -7 -19 8 -4 15 -6 491 -7 1587 l0 102
-28 5 c-28 6 -29 7 -24 61 4 55 4 56 -22 56 -17 0 -26 5 -26 16 0 13 -8 15
-42 10 -24 -3 -52 -7 -63 -9 -11 -1 -24 -5 -30 -8 -5 -4 -23 -5 -40 -4 -16 0
-46 -3 -65 -8 -19 -4 -43 -8 -52 -8 -12 0 -18 -8 -18 -25 0 -17 -6 -24 -19
-24 -26 0 -31 16 -72 233 -6 32 -14 55 -17 52 -11 -10 -1 -300 12 -385 8 -47
17 -106 21 -132 7 -57 14 -59 166 -59 121 0 109 7 154 -88 20 -42 11 -70 -45
-129 -55 -58 -80 -112 -80 -170 0 -70 -17 -112 -44 -112 -67 0 -132 44 -142
96 -8 41 6 65 51 90 30 16 35 23 30 44 -8 37 -56 76 -101 83 -22 4 -60 20 -86
36 -41 26 -123 67 -286 143 -75 35 -192 171 -192 223 0 25 40 148 64 193 20
39 21 143 1 237 -8 39 -20 126 -25 195 -5 69 -16 143 -24 166 -16 45 -46 232
-46 288 0 58 43 125 67 104 7 -5 22 -8 32 -5 11 3 22 0 23 -5 3 -7 10 -7 23 0
11 5 39 16 62 22 23 7 41 16 40 19 -1 3 4 15 10 26 12 21 16 46 14 83 -1 15
-10 26 -28 33 -15 6 -30 13 -33 17 -8 11 -63 48 -81 54 -29 11 -87 92 -99 138
-7 25 -16 50 -21 56 -6 8 -4 14 7 18 9 4 14 9 11 13 -4 3 2 18 13 33 11 16 20
33 20 39 0 6 13 19 29 29 15 9 28 21 29 25 0 5 9 15 19 23 14 11 15 14 3 14
-8 1 -31 3 -51 5 -49 5 -74 -20 -59 -59 5 -15 10 -32 10 -37 0 -14 -40 25 -55
53 -6 13 -17 22 -23 20 -11 -2 -16 17 -13 46 1 6 -5 12 -13 12 -9 0 -13 6 -10
15 5 12 40 14 205 14 118 0 200 -4 200 -9 1 -6 2 -13 3 -17 1 -5 5 -26 10 -48
4 -21 14 -51 21 -66 8 -14 22 -81 31 -148 14 -105 14 -130 3 -181 -7 -33 -16
-60 -19 -60 -8 0 -30 -46 -30 -60 0 -6 4 -9 8 -8 10 4 60 -50 77 -82 7 -14 25
-92 40 -174 15 -82 30 -157 33 -165 13 -34 19 47 14 187 -3 98 -2 142 6 142 6
0 12 8 14 18 3 13 7 11 21 -13 l16 -30 1 33 c0 51 15 69 62 77 67 11 80 25 17
18 l-56 -5 -11 44 c-7 25 -14 52 -17 60 -5 11 13 19 77 34 90 21 79 31 -18 15
-32 -5 -62 -6 -66 -2 -5 4 -11 34 -14 67 l-6 60 88 17 c104 20 168 37 162 43
-3 2 -58 -7 -124 -19 -123 -25 -140 -22 -128 17 13 40 35 54 76 49 28 -4 42
-1 51 9 7 9 29 18 50 21 22 3 45 11 53 18 12 10 39 85 36 100 0 3 17 12 38 19
22 7 40 17 40 22 0 5 4 7 9 3 13 -7 21 8 12 23 -10 17 -2561 18 -2592 1 -16
-8 -26 -7 -46 6 -14 10 -22 12 -19 6z m377 -153 c10 2 11 -14 3 -45 -4 -14
-17 -24 -35 -28 -30 -7 -37 -23 -18 -42 15 -15 -4 -25 -55 -28 -54 -3 -96 33
-96 82 0 23 5 33 15 33 8 0 15 7 15 15 0 21 8 19 33 -11 l22 -25 23 21 c13 12
21 27 19 33 -2 7 3 17 12 24 13 10 19 8 35 -10 10 -12 23 -21 27 -19z m271
-953 c-2 -15 0 -25 7 -25 6 0 11 6 11 13 0 8 4 7 10 -3 7 -10 12 -12 18 -4 11
16 50 24 55 10 3 -8 8 -7 20 2 9 8 22 10 29 6 20 -13 48 -15 48 -4 0 6 18 10
43 8 23 -1 51 1 63 5 16 6 29 -1 57 -28 20 -19 32 -35 27 -35 -6 0 -10 -5 -10
-11 0 -6 7 -9 15 -5 9 3 15 0 15 -9 0 -18 82 -105 98 -105 7 0 12 -11 12 -24
0 -44 10 -56 47 -56 25 0 43 -8 64 -30 17 -16 28 -34 25 -39 -3 -4 -38 -18
-78 -31 -107 -33 -149 -49 -180 -71 -16 -12 -52 -29 -80 -39 -48 -17 -69 -42
-47 -56 5 -3 9 -21 9 -40 0 -25 -4 -34 -17 -35 -17 0 -17 -1 -1 -7 23 -9 51
-63 67 -125 6 -27 18 -59 26 -71 8 -12 22 -62 31 -111 l17 -88 -24 -43 c-13
-24 -20 -46 -17 -50 4 -3 32 -6 63 -5 48 0 55 -2 45 -14 -7 -8 -9 -24 -5 -36
6 -18 13 -21 49 -17 60 7 81 -25 43 -66 -9 -11 -26 -39 -38 -63 -11 -24 -32
-52 -45 -62 l-25 -19 63 3 c61 3 63 4 110 55 47 52 47 52 43 111 -6 79 20 149
61 163 16 5 33 15 37 22 16 28 37 15 37 -21 0 -29 -8 -43 -44 -78 -53 -50 -76
-115 -82 -222 -4 -83 -34 -159 -87 -220 -25 -29 -45 -40 -92 -51 -33 -9 -74
-19 -92 -23 -42 -11 -131 7 -168 35 -46 34 -112 64 -139 64 -16 0 -24 5 -21
13 3 6 -17 27 -46 47 -28 19 -89 74 -137 122 -84 87 -86 88 -134 88 -44 0 -65
13 -36 22 8 3 4 9 -10 17 -27 15 -29 42 -2 59 27 17 26 22 -18 100 -41 72 -64
138 -41 115 22 -22 24 -15 21 52 -4 65 -4 65 23 65 28 0 125 47 125 61 0 4 7
10 16 13 10 4 13 2 8 -6 -5 -7 -3 -8 7 -2 8 4 30 9 50 10 31 1 36 -2 32 -17
-5 -16 0 -19 28 -19 19 0 50 8 69 18 39 21 84 92 66 105 -8 5 -6 10 4 17 23
15 44 7 50 -19 9 -39 30 -38 30 1 0 19 6 40 13 47 10 11 8 13 -13 7 -14 -4
-43 -9 -65 -12 -31 -4 -37 -3 -28 7 6 6 9 18 6 25 -3 8 0 14 7 14 6 0 8 5 5
10 -3 6 0 10 8 10 21 0 41 26 27 35 -41 26 -386 38 -428 16 -19 -10 -22 -9
-22 7 0 10 10 45 23 78 15 38 23 76 21 108 -1 27 2 57 6 65 12 22 40 112 40
126 0 13 64 85 75 85 3 0 17 12 31 27 19 20 27 24 36 15 17 -17 33 -15 19 2
-10 12 -6 15 19 21 16 4 30 11 30 16 0 6 4 8 9 5 4 -3 6 -17 3 -31z m818 -604
c6 -16 9 -50 7 -75 -4 -37 -2 -46 10 -46 12 0 13 -3 4 -14 -10 -11 -9 -16 2
-23 13 -7 13 -18 -3 -82 -21 -83 -46 -116 -99 -131 -70 -19 -99 -13 -143 29
-22 22 -55 50 -74 63 -19 13 -37 33 -40 45 -3 12 -12 27 -20 34 -8 6 -11 15
-8 20 6 10 -12 47 -33 67 -9 10 -10 19 -3 33 6 10 10 27 8 36 -6 33 128 52
165 23 27 -21 63 -16 132 18 41 20 65 30 76 31 4 1 12 -12 19 -28z m-965 -1
c-10 -11 -25 -20 -33 -20 -9 0 -12 -3 -9 -7 9 -8 -23 -32 -44 -33 -28 0 -61
-45 -54 -73 4 -14 13 -27 21 -29 8 -2 10 -8 6 -15 -5 -8 -17 -10 -37 -5 -27 8
-30 13 -35 60 -3 31 -1 53 5 55 6 2 2 13 -8 24 -16 19 -16 21 -1 34 18 14 80
26 158 28 48 1 49 1 31 -19z m1926 -200 c5 0 12 -18 15 -40 7 -41 24 -66 24
-34 0 13 3 14 13 5 8 -6 38 -14 68 -18 38 -6 54 -13 54 -23 0 -12 -15 -15 -73
-15 -39 0 -72 -1 -72 -3 0 -1 10 -7 23 -12 17 -7 11 -9 -30 -9 l-53 -1 -1 53
c-1 69 2 110 9 122 4 6 8 2 10 -7 2 -10 8 -18 13 -18z m-654 -610 c-7 -51 -45
-130 -63 -130 -8 0 -14 -8 -14 -18 0 -10 -9 -28 -20 -40 -11 -12 -20 -26 -20
-32 0 -5 -7 -10 -16 -10 -10 0 -13 -6 -9 -19 6 -20 -51 -78 -115 -118 -19 -12
-42 -32 -50 -44 -8 -12 -37 -49 -64 -82 -43 -53 -51 -58 -57 -41 -7 18 -8 18
-14 -3 -5 -15 -13 -20 -27 -18 -12 3 -23 7 -26 9 -10 11 9 38 43 57 19 12 35
25 35 30 0 5 23 18 50 30 35 15 59 34 79 63 36 55 51 98 40 118 -13 24 -2 43
49 85 26 21 49 41 50 46 20 44 127 157 151 157 2 0 1 -18 -2 -40z m-1489 -180
c20 -19 22 -19 38 -3 16 16 18 16 32 -5 17 -25 50 -29 58 -7 8 19 24 20 24 1
0 -13 -54 -39 -63 -30 -2 2 -10 -2 -17 -11 -16 -20 -44 -20 -36 0 6 17 4 18
-18 9 -19 -7 -22 -44 -3 -44 16 0 20 -42 4 -52 -16 -10 -29 -10 -23 1 8 13
-47 21 -61 9 -7 -6 -13 -26 -13 -44 0 -23 -5 -34 -14 -34 -10 0 -12 7 -9 21 4
15 0 27 -12 35 -33 24 -42 17 -40 -32 1 -53 -14 -75 -46 -67 -15 4 -20 3 -15
-5 4 -7 3 -12 -3 -12 -5 0 -13 5 -16 10 -3 6 -1 10 5 10 7 0 10 7 7 15 -9 22
13 29 27 9 10 -13 15 -14 21 -5 12 21 -11 33 -55 29 -42 -4 -42 -4 -20 14 27
22 20 34 -9 18 -24 -12 -27 -3 -6 24 10 14 12 23 4 32 -12 15 5 28 26 20 10
-3 15 1 15 12 0 20 141 101 176 102 11 0 30 -9 42 -20z m469 -100 c-9 -64 -8
-72 9 -84 12 -9 19 -29 21 -56 3 -47 26 -90 48 -90 15 0 23 22 27 80 4 43 25
49 79 23 47 -22 48 -29 9 -38 -17 -4 -28 -10 -26 -14 3 -4 -9 -16 -25 -26 -16
-11 -29 -28 -29 -37 0 -10 2 -18 5 -18 18 0 54 27 75 56 28 39 76 69 85 54 8
-13 34 -1 80 37 61 51 65 54 65 45 0 -5 -11 -19 -24 -31 -14 -13 -32 -38 -40
-56 -9 -19 -30 -40 -51 -50 -24 -11 -35 -22 -33 -33 5 -27 40 -20 58 13 9 16
27 32 41 35 17 5 23 12 21 26 -2 11 1 15 5 9 14 -18 89 -3 78 15 -7 11 78 50
108 50 4 0 20 6 36 15 35 18 44 5 24 -36 -14 -27 -43 -58 -43 -44 0 4 -21 -12
-47 -35 -55 -48 -164 -103 -188 -94 -9 4 -21 -1 -29 -11 -7 -10 -18 -15 -25
-11 -6 4 -14 0 -17 -8 -3 -9 -14 -16 -23 -16 -10 0 -21 -3 -25 -7 -3 -4 -15
-8 -26 -10 -17 -2 -20 2 -16 23 3 14 10 32 17 40 6 8 9 14 6 14 -5 0 -56 -27
-90 -47 -4 -3 -3 -11 3 -18 8 -9 4 -17 -15 -29 -21 -14 -24 -20 -15 -31 9 -11
7 -12 -10 -8 -21 6 -22 21 -3 88 5 16 4 17 -8 5 -8 -8 -22 -27 -32 -42 -18
-29 -41 -36 -53 -17 -6 11 21 73 44 97 17 19 15 30 -9 42 -26 15 -37 5 -21
-20 17 -27 15 -30 -13 -30 -22 0 -30 -9 -26 -33 1 -4 -10 -24 -24 -45 -30 -44
-31 -55 -5 -47 11 3 20 4 20 1 0 -11 -55 -32 -72 -29 -22 5 -23 -12 -4 -49 8
-16 11 -28 7 -28 -4 0 -13 11 -19 24 -11 25 -51 54 -53 39 0 -4 -2 -19 -4 -33
-1 -14 8 -45 21 -69 13 -24 24 -49 24 -55 0 -7 16 -39 36 -72 74 -119 85 -144
100 -215 20 -96 15 -116 -32 -121 -42 -5 -38 -12 -84 138 -17 56 -46 125 -65
155 -19 30 -35 62 -35 71 0 9 -9 37 -20 62 -17 41 -18 49 -5 80 16 38 11 66
-12 66 -8 0 -11 5 -8 10 4 6 0 22 -9 35 -27 41 -17 63 27 56 4 0 7 3 7 9 0 5
-7 10 -17 10 -9 0 -13 3 -10 6 8 8 -31 64 -45 64 -5 0 -23 11 -39 24 -15 13
-34 26 -41 29 -9 3 -5 13 15 34 15 16 27 36 27 45 0 9 10 20 23 23 12 4 31 15
42 25 11 10 32 21 47 25 14 4 36 18 49 31 12 13 33 24 45 24 13 0 45 14 71 30
68 43 71 42 60 -40z m1052 46 l23 -25 -12 -141 c-7 -77 -16 -143 -21 -145 -12
-8 14 -65 33 -71 27 -8 51 -49 43 -74 -6 -18 -19 -24 -52 -23 -16 1 -16 2 3
-57 20 -62 15 -81 -14 -52 -12 12 -25 22 -29 22 -5 1 -18 16 -30 35 -22 35
-22 35 -2 35 65 0 -46 66 -126 76 l-50 5 36 -23 c43 -28 35 -42 -27 -45 -41
-2 -42 -2 -48 35 -5 32 -13 42 -48 61 -100 55 -108 62 -99 80 17 30 124 145
165 177 23 17 61 41 85 55 25 13 63 41 85 61 23 21 46 38 52 38 6 0 21 -11 33
-24z m-1668 -253 c9 -8 30 -18 45 -22 19 -5 30 -15 32 -28 4 -30 31 -51 41
-34 6 9 10 5 15 -12 3 -14 20 -35 36 -47 30 -21 41 -59 18 -61 -21 -2 -51 -7
-98 -16 -35 -7 -46 -13 -48 -30 -6 -44 -34 -56 -112 -48 -58 6 -71 10 -68 24
2 11 24 21 65 31 71 18 90 30 46 30 -52 0 -94 12 -101 29 -3 9 -9 19 -14 22
-5 3 -9 41 -9 84 0 63 3 82 16 91 22 16 113 7 136 -13z m1224 -154 c4 -11 10
-17 15 -14 5 3 11 1 15 -5 4 -6 10 -8 15 -5 5 3 11 -4 15 -15 3 -11 12 -20 19
-20 17 0 102 -98 98 -113 -2 -7 0 -9 4 -4 13 12 104 -56 104 -79 0 -19 -30
-25 -46 -9 -9 8 -19 15 -23 15 -13 0 -52 41 -46 50 3 4 -3 6 -13 3 -10 -2 -24
3 -31 11 -8 9 -19 16 -26 16 -8 0 -15 4 -17 8 -4 11 -78 53 -78 45 0 -4 10
-18 23 -31 l22 -24 -180 5 c-168 5 -247 16 -269 38 -6 5 3 13 22 20 22 7 32
17 32 31 0 14 5 18 15 14 9 -3 19 3 25 15 12 21 35 16 26 -7 -8 -21 27 -17 57
6 39 31 81 36 114 13 52 -37 58 -38 40 -12 -22 30 -21 34 4 57 24 23 56 18 64
-9z m-387 -154 c31 -8 135 -26 231 -41 95 -14 197 -32 225 -39 30 -8 52 -10
54 -4 5 13 22 11 22 -3 1 -21 87 -89 104 -82 11 4 16 0 16 -12 -1 -54 -32 -52
-94 8 -43 41 -94 57 -208 63 -37 2 -76 9 -87 15 -12 6 -38 10 -58 10 -61 -1
-143 15 -222 43 -82 29 -86 31 -76 46 8 14 24 14 93 -4z"/>
<path d="M1273 1839 c-166 -175 -169 -180 -102 -213 29 -15 33 -14 57 4 19 15
34 19 59 14 43 -8 42 5 -2 34 -19 12 -35 29 -35 38 0 9 16 43 36 75 49 81 42
107 -13 48z"/>
<path d="M3245 2328 c-38 -5 -88 -10 -110 -10 -22 0 -34 -2 -27 -5 14 -6 16
-53 2 -53 -6 0 -14 10 -19 22 l-8 22 -12 -23 c-9 -16 -10 -26 -3 -33 11 -11
286 -7 297 4 4 4 4 25 0 47 -8 46 -2 45 -120 29z"/>
<path d="M1253 3 c416 -2 1098 -2 1515 0 416 1 75 2 -758 2 -833 0 -1174 -1
-757 -2z"/>
</g>
</svg>
